<svg width="32" height="32" viewBox="0 0 32 32" fill="none" xmlns="http://www.w3.org/2000/svg">
<g clip-path="url(#clip0_4_9)">
<circle cx="16" cy="10" r="9" stroke="black" stroke-width="2"/>
<mask id="path-2-inside-1_4_9" fill="white">
<path fill-rule="evenodd" clip-rule="evenodd" d="M7.48258 18.453C2.98696 21.2855 0 26.2939 0 32C0 40.8366 7.16344 48 16 48C24.8366 48 32 40.8366 32 32C32 26.2939 29.013 21.2855 24.5174 18.453C22.3434 20.6435 19.3301 22 16 22C12.6699 22 9.65665 20.6435 7.48258 18.453Z"/>
</mask>
<path d="M7.48258 18.453L8.90212 17.0442L7.77281 15.9063L6.41644 16.7609L7.48258 18.453ZM24.5174 18.453L25.5836 16.7609L24.2272 15.9063L23.0979 17.0442L24.5174 18.453ZM2 32C2 27.0094 4.60987 22.6269 8.54872 20.1452L6.41644 16.7609C1.36404 19.9442 -2 25.5785 -2 32H2ZM16 46C8.26801 46 2 39.732 2 32H-2C-2 41.9411 6.05887 50 16 50V46ZM30 32C30 39.732 23.732 46 16 46V50C25.9411 50 34 41.9411 34 32H30ZM23.4513 20.1452C27.3901 22.6269 30 27.0094 30 32H34C34 25.5785 30.636 19.9442 25.5836 16.7609L23.4513 20.1452ZM23.0979 17.0442C21.2839 18.8718 18.7756 20 16 20V24C19.8846 24 23.4028 22.4152 25.937 19.8619L23.0979 17.0442ZM16 20C13.2244 20 10.7161 18.8718 8.90212 17.0442L6.06305 19.8619C8.59721 22.4152 12.1154 24 16 24V20Z" fill="black" mask="url(#path-2-inside-1_4_9)"/>
<line x1="2" y1="31.5" x2="30" y2="31.5" stroke="black"/>
<line x1="3.5" y1="24" x2="3.5" y2="31" stroke="black"/>
<line x1="6.5" y1="21" x2="6.5" y2="31" stroke="black"/>
<line x1="9.5" y1="22" x2="9.5" y2="31" stroke="black"/>
<line x1="12.5" y1="23" x2="12.5" y2="31" stroke="black"/>
<line x1="15.5" y1="23" x2="15.5" y2="31" stroke="black"/>
<line x1="18.5" y1="23" x2="18.5" y2="31" stroke="black"/>
<line x1="21.5" y1="22" x2="21.5" y2="31" stroke="black"/>
<line x1="24.5" y1="21" x2="24.5" y2="31" stroke="black"/>
<line x1="27.5" y1="22" x2="27.5" y2="31" stroke="black"/>
</g>
<defs>
<clipPath id="clip0_4_9">
<rect width="32" height="32" fill="white"/>
</clipPath>
</defs>
</svg>
