<svg xmlns:xlink="http://www.w3.org/1999/xlink" width="1540" xmlns="http://www.w3.org/2000/svg" height="1540" id="screenshot-1be71720-e1e6-11ec-aede-394e4b22a99d" viewBox="0 0 1540 1540" style="-webkit-print-color-adjust: exact;" fill="none" version="1.1"><g id="shape-1be71720-e1e6-11ec-aede-394e4b22a99d"><defs><clipPath id="frame-clip-1be71720-e1e6-11ec-aede-394e4b22a99d-0d7c3540-e1ef-11ec-837f-eb6646ed3f11" class="frame-clip"><rect rx="0" ry="0" x="0" y="0" width="1540" height="1540"/></clipPath></defs><g clip-path="url(#frame-clip-1be71720-e1e6-11ec-aede-394e4b22a99d-0d7c3540-e1ef-11ec-837f-eb6646ed3f11)"><g id="fills-1be71720-e1e6-11ec-aede-394e4b22a99d"><rect rx="0" ry="0" x="0" y="0" transform="matrix(1,0,0,1,0,0)" width="1540" height="1540" class="frame-background"/></g><g class="frame-children"><g id="shape-1be71726-e1e6-11ec-aede-394e4b22a99d" rx="0" ry="0" style="fill: rgb(0, 0, 0);"><g id="shape-1be71727-e1e6-11ec-aede-394e4b22a99d"><g id="fills-1be71727-e1e6-11ec-aede-394e4b22a99d"><path class="st0" rx="0" ry="0" d="M233.02143023526673,283L172,367.0942232192932C172,367.0942232192932,259.44723969252277,987.6550757150868,605,1363C605,1363.1009534492428,308.0626601444212,1067.206393718452,233.02143023526673,283ZZ" style="fill: rgb(0, 71, 119); fill-opacity: 1;"/></g></g><g id="shape-1be71728-e1e6-11ec-aede-394e4b22a99d"><g id="fills-1be71728-e1e6-11ec-aede-394e4b22a99d"><path rx="0" ry="0" d="M266.30958904109616,869.0000000000002L244.00000000000023,933.2246777163907C244.00000000000023,933.2246777163907,400.268071654373,1325.2375690607737,723,1527.0000000000002C723,1527.0000000000002,471.0328767123285,1389.361264579497,266.30958904109616,869.0000000000002ZZ" style="fill: rgb(26, 126, 194);"/></g></g><g id="shape-1be71729-e1e6-11ec-aede-394e4b22a99d"><g id="fills-1be71729-e1e6-11ec-aede-394e4b22a99d"><path class="st0" rx="0" ry="0" d="M1382.6548138208645,95.99999999999977L1459.999999999999,180.7286578363064C1459.999999999999,180.7286578363064,1373.0623951694051,1040.4367200061247,858,1415C858,1415,1339.6403891311638,945.912257866932,1382.6548138208645,95.99999999999977ZL1382.6548138208645,95.99999999999977Z" style="fill: rgb(0, 71, 119); fill-opacity: 1;"/></g></g><g id="shape-1be7172b-e1e6-11ec-aede-394e4b22a99d" rx="0" ry="0" style="overflow: visible; fill: url(&quot;#0d7fdec0-e1ef-11ec-837f-eb6646ed3f11-SVGID_00000064350099770974360690000005686278871733434813_&quot;);"><defs><radialGradient cx="569.001" cy="1254.67" r="184.286" id="0d7fdec0-e1ef-11ec-837f-eb6646ed3f11-SVGID_00000064350099770974360690000005686278871733434813_" gradientUnits="userSpaceOnUse" class="svg-def" gradientTransform="matrix(1.0096596136154787,0,0,1.008695652173908,172.00367985279166,20.440000000001874)"><stop offset="0" style="stop-color: rgb(26, 126, 194);"/><stop offset=".157" style="stop-color: rgb(26, 124, 191);"/><stop offset=".286" style="stop-color: rgb(27, 118, 182);"/><stop offset=".407" style="stop-color: rgb(28, 108, 166);"/><stop offset=".521" style="stop-color: rgb(28, 94, 145);"/><stop offset=".631" style="stop-color: rgb(26, 77, 120);"/><stop offset=".739" style="stop-color: rgb(21, 58, 92);"/><stop offset=".843" style="stop-color: rgb(14, 37, 62);"/><stop offset=".943" style="stop-color: rgb(3, 11, 27);"/><stop offset="1" style="stop-color: rgb(0, 0, 0);"/></radialGradient></defs><g id="shape-1be71738-e1e6-11ec-aede-394e4b22a99d"><defs><radialGradient cx="569.001" cy="1254.67" r="184.286" id="0d8228b0-e1ef-11ec-837f-eb6646ed3f11-SVGID_00000064350099770974360690000005686278871733434813_" gradientUnits="userSpaceOnUse" gradientTransform="matrix(1.009659613615454,0,0,1.0086956521739132,172.00367985280656,20.439999999999827)"><stop offset="0" style="stop-color: rgb(26, 126, 194);"/><stop offset=".157" style="stop-color: rgb(26, 124, 191);"/><stop offset=".286" style="stop-color: rgb(27, 118, 182);"/><stop offset=".407" style="stop-color: rgb(28, 108, 166);"/><stop offset=".521" style="stop-color: rgb(28, 94, 145);"/><stop offset=".631" style="stop-color: rgb(26, 77, 120);"/><stop offset=".739" style="stop-color: rgb(21, 58, 92);"/><stop offset=".843" style="stop-color: rgb(14, 37, 62);"/><stop offset=".943" style="stop-color: rgb(3, 11, 27);"/><stop offset="1" style="stop-color: rgb(0, 0, 0);"/></radialGradient></defs><g id="fills-1be71738-e1e6-11ec-aede-394e4b22a99d"><path rx="0" ry="0" d="M527.0000000000002,1141C527.0000000000002,1141,723.8836246550136,1257,965.9999999999991,1163.4939130434782C965.9999999999991,1163.4939130434782,897.1412143514253,1284.7391304347825,731.9609015639371,1431C731.9609015639371,1431,621.1002759889607,1332.9547826086957,527.0000000000002,1141ZZ" style="overflow: visible; fill: url(&quot;#0d8228b0-e1ef-11ec-837f-eb6646ed3f11-SVGID_00000064350099770974360690000005686278871733434813_&quot;);"/></g></g></g><g id="shape-1be7172c-e1e6-11ec-aede-394e4b22a99d"><defs><path id="0d83af50-e1ef-11ec-837f-eb6646ed3f11-SVGID_1_" d="M351.6 1110.9s195 115 434.8 22.3c0 0-68.2 120.2-231.8 265.2 0 0-109.8-97.2-203-287.5z"/><clipPath id="0d83af50-e1ef-11ec-837f-eb6646ed3f11-SVGID_00000149342827217941112900000012319066229553017262_" transform="matrix(1.0096596136154548,0,0,1.0086956521739128,172.00367985280587,20.440000000000055)"><use xlink:href="#0d83af50-e1ef-11ec-837f-eb6646ed3f11-SVGID_1_" style="overflow: visible;"/></clipPath><radialGradient cx="569.001" cy="1254.67" r="184.286" id="0d83af50-e1ef-11ec-837f-eb6646ed3f11-SVGID_00000175322489824332931830000016906132109953981101_" gradientUnits="userSpaceOnUse" gradientTransform="matrix(1.0096596136154548,0,0,1.0086956521739128,172.00367985280587,20.440000000000055)"><stop offset="0" style="stop-color: rgb(26, 126, 194);"/><stop offset=".157" style="stop-color: rgb(26, 124, 191);"/><stop offset=".286" style="stop-color: rgb(27, 118, 182);"/><stop offset=".407" style="stop-color: rgb(28, 108, 166);"/><stop offset=".521" style="stop-color: rgb(28, 94, 145);"/><stop offset=".631" style="stop-color: rgb(26, 77, 120);"/><stop offset=".739" style="stop-color: rgb(21, 58, 92);"/><stop offset=".843" style="stop-color: rgb(14, 37, 62);"/><stop offset=".943" style="stop-color: rgb(3, 11, 27);"/><stop offset="1" style="stop-color: rgb(0, 0, 0);"/></radialGradient></defs><g id="fills-1be7172c-e1e6-11ec-aede-394e4b22a99d"><path rx="0" ry="0" d="M526.9999999999998,1140.9999999999998C526.9999999999998,1140.9999999999998,723.8836246550136,1256.9999999999998,965.9999999999991,1163.493913043478C965.9999999999991,1163.493913043478,897.1412143514244,1284.7391304347825,731.9609015639371,1430.9999999999998C731.9609015639371,1430.9999999999998,621.1002759889598,1332.9547826086955,526.9999999999998,1140.9999999999998ZZ" style="clip-path: url(&quot;#0d83af50-e1ef-11ec-837f-eb6646ed3f11-SVGID_00000149342827217941112900000012319066229553017262_&quot;); fill: url(&quot;#0d83af50-e1ef-11ec-837f-eb6646ed3f11-SVGID_00000175322489824332931830000016906132109953981101_&quot;);"/></g></g><g id="shape-1be7172d-e1e6-11ec-aede-394e4b22a99d"><defs><radialGradient cx="514.83" cy="699.603" r="910.816" id="0d85ab20-e1ef-11ec-837f-eb6646ed3f11-SVGID_00000078762837108933403250000007617641148350420919_" gradientTransform="matrix(1.009928472296359,0,0,1.0099284722963593,172.02103128002517,18.816590156933955) translate(2.24 -26.24) scale(1.0284)" gradientUnits="userSpaceOnUse"><stop offset="0" style="stop-color: rgb(26, 126, 194);"/><stop offset=".157" style="stop-color: rgb(26, 124, 191);"/><stop offset=".286" style="stop-color: rgb(27, 118, 182);"/><stop offset=".407" style="stop-color: rgb(28, 108, 166);"/><stop offset=".521" style="stop-color: rgb(28, 94, 145);"/><stop offset=".631" style="stop-color: rgb(26, 77, 120);"/><stop offset=".739" style="stop-color: rgb(21, 58, 92);"/><stop offset=".843" style="stop-color: rgb(14, 37, 62);"/><stop offset=".943" style="stop-color: rgb(3, 11, 27);"/><stop offset="1" style="stop-color: rgb(0, 0, 0);"/></radialGradient><path id="0d85ab20-e1ef-11ec-837f-eb6646ed3f11-SVGID_1_" d="M351.6 1110.9s195 115 434.8 22.3c0 0-68.2 120.2-231.8 265.2 0 0-109.8-97.2-203-287.5z"/><clipPath id="0d85ab20-e1ef-11ec-837f-eb6646ed3f11-SVGID_00000149342827217941112900000012319066229553017262_" transform="matrix(1.009928472296359,0,0,1.0099284722963593,172.02103128002517,18.816590156933955)"><use xlink:href="#0d85ab20-e1ef-11ec-837f-eb6646ed3f11-SVGID_1_" style="overflow: visible;"/></clipPath></defs><g id="fills-1be7172d-e1e6-11ec-aede-394e4b22a99d"><ellipse rx="945.9999999999997" ry="945.9999999999999" cx="708.9999999999994" cy="718.9999999999999" transform="matrix(1,0,0,1,0,0)" style="clip-path: url(&quot;#0d85ab20-e1ef-11ec-837f-eb6646ed3f11-SVGID_00000149342827217941112900000012319066229553017262_&quot;); fill: url(&quot;#0d85ab20-e1ef-11ec-837f-eb6646ed3f11-SVGID_00000078762837108933403250000007617641148350420919_&quot;);"/></g></g><g id="shape-1be7172e-e1e6-11ec-aede-394e4b22a99d" rx="0" ry="0" style="overflow: visible; fill: url(&quot;#0d8731c0-e1ef-11ec-837f-eb6646ed3f11-SVGID_00000054267458367881544770000014227533885035913904_&quot;);"><defs><radialGradient cx="589.215" cy="811.404" r="342.279" id="0d8731c0-e1ef-11ec-837f-eb6646ed3f11-SVGID_00000054267458367881544770000014227533885035913904_" gradientUnits="userSpaceOnUse" class="svg-def" gradientTransform="matrix(1.0102171778996325,0,0,1.0098290899477806,171.8131270918297,19.170057714600375)"><stop offset="0" style="stop-color: rgb(26, 126, 194);"/><stop offset=".094" style="stop-color: rgb(28, 101, 155);"/><stop offset=".23" style="stop-color: rgb(25, 71, 111);"/><stop offset=".366" style="stop-color: rgb(18, 49, 78);"/><stop offset=".5" style="stop-color: rgb(11, 30, 52);"/><stop offset=".632" style="stop-color: rgb(4, 15, 32);"/><stop offset=".761" style="stop-color: rgb(0, 2, 16);"/><stop offset=".885" style="stop-color: rgb(0, 0, 3);"/><stop offset="1" style="stop-color: rgb(0, 0, 0);"/></radialGradient></defs><g id="shape-1be71739-e1e6-11ec-aede-394e4b22a99d"><defs><radialGradient cx="589.215" cy="811.404" r="342.279" id="0d881c20-e1ef-11ec-837f-eb6646ed3f11-SVGID_00000054267458367881544770000014227533885035913904_" gradientUnits="userSpaceOnUse" gradientTransform="matrix(1.0102171778996394,0,0,1.0098290899477804,171.813127091828,19.170057714602194)"><stop offset="0" style="stop-color: rgb(26, 126, 194);"/><stop offset=".094" style="stop-color: rgb(28, 101, 155);"/><stop offset=".23" style="stop-color: rgb(25, 71, 111);"/><stop offset=".366" style="stop-color: rgb(18, 49, 78);"/><stop offset=".5" style="stop-color: rgb(11, 30, 52);"/><stop offset=".632" style="stop-color: rgb(4, 15, 32);"/><stop offset=".761" style="stop-color: rgb(0, 2, 16);"/><stop offset=".885" style="stop-color: rgb(0, 0, 3);"/><stop offset="1" style="stop-color: rgb(0, 0, 0);"/></radialGradient></defs><g id="fills-1be71739-e1e6-11ec-aede-394e4b22a99d"><path rx="0" ry="0" d="M1113.436558612082,909.637349230555C1108.7895595937434,908.8294859585968,1104.2435822931948,911.1520928654767,1099.495561557067,911.5560245014558C1086.766825115532,912.7678194093932,1086.766825115532,912.8688023183878,1084.1402604529922,900.548887421025C1078.3820225389645,874.3943139913774,1067.9767856065982,849.9564500146412,1056.359288060752,826.0235005828788C1050.3990067111445,813.8045685945107,1047.5703986130256,801.9895682421217,1048.4795940731346,788.0539268008422C1050.6010501467244,757.2541395574349,1048.5806157909255,726.4543523140276,1044.034638490377,695.85653088861C1042.923399594687,688.2828127140016,1043.024421312477,688.2828127140016,1049.9949198399845,685.1523425351634C1058.581765852131,681.3149919933619,1067.0675901464892,677.4776414515603,1075.6544361586357,673.8422567277482C1079.1901962812844,672.3275130928266,1079.9983700236035,670.9137523668996,1078.1799791033845,667.0764018250981C1074.4421755451558,659.1997349235055,1069.9972199623971,651.7269996578917,1064.7440906373195,644.8601618462469C1042.519312723527,615.9790498737403,1017.0618398404567,590.228408080072,989.2808674482167,566.8003731932836C986.9573679390469,564.8816979223827,984.633868429878,562.963022651482,982.1083254851283,561.3472961075655C970.288784503703,553.9755437509468,959.0753738290168,545.5939623043802,947.5588980009616,537.8182783117824C933.2138140747866,528.1239190482836,917.9595346885017,521.9639615996023,901.4929946887369,517.7226794218215C900.0786906396779,517.3187477858424,898.563364872829,517.1167819678528,897.2500825415591,518.7325085117693C902.7052553022168,537.4143466758032,906.9481674493954,556.601099384811,911.3931230321541,575.6868691848241C911.4941447499441,576.2927666387927,911.4941447499441,576.7976811837666,911.5951664677341,577.4035786377353L911.5951664677341,584.9772968123438C909.6757538297243,585.1792626303333,907.8573629095054,585.4822113573176,906.1399937070755,586.694006265255L905.5338634003356,586.7949891742497C903.7154724801167,586.3910575382707,901.9981032776868,586.9969549922394,900.1797123574679,587.4008866282185C876.7426738301956,593.055929531926,853.6087004562951,600.1247331615605,831.2829008247127,609.2131949710905C817.9480340764376,614.5652891478137,806.1284930950114,615.373152419772,792.3895394755764,610.2230240610384C762.5881327275365,599.2158869806076,731.2714002126477,594.5706731668478,699.6516025443889,592.0461004419783C695.3076686794211,591.743151714994,692.4790605813023,590.6323397160514,690.4586262255025,586.4920404472655C683.690171133575,572.6573819149809,676.8206943238574,558.8227233826964,669.6481523607699,545.2910135773961C667.3246528516001,540.9487484906207,668.3348700295,539.0300732197198,672.4767604588887,537.0104150398242C684.1952797225249,531.3553721361167,695.6107338327902,525.1954146874351,707.2282313786363,519.4393888747329C716.9263162864727,514.5922092429835,726.927466347679,510.249944156208,737.3327032800453,506.9175081593804C741.1715285560649,505.6047303424484,742.5858326051239,503.8880208895371,741.676637145014,499.64673871175637C740.868463402694,495.91037107894965,739.959267942585,493.48678126307504,735.4132906420364,494.09267871704355C731.5744653660176,494.6985761710124,727.533596654419,494.5975932620174,723.6947713784002,495.00152489799666C694.7015383726812,498.2329779858295,666.9205659804411,506.21062779641693,639.947767330521,517.4197306948373C612.7729252450199,528.7298165022524,587.3154523619498,543.1703724885057,563.272283527938,560.0345182906337C557.8171107672799,563.8718688324352,558.1201759206499,563.9728517414301,560.8477623009787,569.3249459181534C562.6661532211986,572.7583648239757,564.7876092947874,573.3642622779445,568.1213259818562,571.9505015520176C570.3438037732351,570.9406724620698,572.5662815646149,570.1328091901116,574.8897810737838,569.3249459181534C597.8217110121059,560.9433644715868,620.7536409504273,552.2588342980358,644.5947663488587,546.6037913943283C651.2621997229962,544.9880648504118,651.3632214407862,545.0890477594066,653.181612361006,551.6529368440672C656.9194159192348,564.6797321043936,660.3541543240935,577.8075102737147,664.1929796001123,590.9352884430358C665.6072836491712,595.6814851657904,665.4052402135912,599.2158869806077,661.2633497842025,602.8512717044196C654.595916410065,608.607297517122,649.2417653671973,615.5751182377617,643.7865926065388,622.4419560494065C627.2190308889849,643.4464011203203,611.8637297849109,665.3596923721872,598.6298847544249,688.6867443499809C595.0941246317761,694.8467017986624,591.0532559201783,699.4919156124222,583.8807139570906,702.2184541552812C556.90791530717,712.8216595997328,530.2381818106198,724.2327283161427,503.46742659627967,735.3408483055682C500.94188365153036,736.3506773955161,498.61838414236104,737.7644381214429,495.6887543264522,737.5624723034534C482.9600178849166,715.7501639605814,476.0905410751991,691.7162316198243,468.31186880537166,667.3793505520828C458.31071874416534,682.0218723563255,445.3799388670502,710.0951210568737,437.70228831501277,733.6241388526571C432.7522241433046,748.8725581108686,427.49909481822647,764.1209773690802,426.3878559225366,780.3792257172393C425.07457359126715,781.9949522611557,424.8725301556872,783.8126446230617,425.27661702684713,785.8323028029573C425.07457359126715,787.6499951648633,424.8725301556872,789.4676875267694,424.5694650023172,791.2853798886754C422.8520957998883,794.1129013405291,422.95311751767827,797.1423886103723,423.2561826710478,800.2728587892105C419.01327052386955,827.8411929447849,419.21531395944953,855.5105100093542,422.14494377535834,883.1798270739233C423.1551609532578,893.0761521554116,424.8725301556872,902.8714943279051,426.9939862292765,912.6668365003986C427.600116536016,915.5953408612471,429.01442058507587,917.5140161321478,431.7420069654047,915.7973066792367C439.7227226708121,910.647178320503,448.8146772719085,908.0216226866387,457.4015232840559,904.3862379628268C464.9781521183029,901.1547848749939,465.07917383609333,901.4577336019784,469.1200425476916,908.3245714136232C474.5752153083497,917.514016132148,479.72732291563784,926.9054266686624,486.4957780075654,935.3879910242237C498.0122538356211,950.0305128284665,510.0338382526272,964.2691029967302,521.5503140806829,978.8106418919782C523.1666615653223,980.9312829808686,525.4901610744912,982.4460266157902,527.409573712501,984.2637189776962C532.3596378842087,988.908932791456,538.8250278227667,992.6453004242627,540.2393318718262,1000.1180356898764C543.168961687735,1016.0733353110513,547.9169824238636,1031.5237203872523,552.6650031599918,1046.8731225544586C557.51404561391,1062.7274392666386,563.474326963518,1078.3797901608293,573.2734335891444,1092.1134657841192C576.5061285584231,1096.6576966888842,576.4051068406332,1098.3744061417956,571.556064386715,1101.8078250476178C565.2927178837374,1106.1500901343932,560.6457188653987,1112.7139792190537,552.7660248777813,1115.0365861259336C551.6547859820923,1115.339534852918,549.8363950618725,1117.6621417597978,550.8466122397724,1119.378851212709C552.8670465955718,1122.6103043005419,555.998719847061,1125.1348770254115,558.6252845095999,1127.9623984772652C560.4436754298188,1129.881073748166,561.9590011966686,1125.6397915703853,564.2825007058375,1125.0338941164166C571.455042668925,1123.1152188455158,578.6275846320125,1120.691629029641,585.49706144173,1117.9650904867822C591.4573427913383,1115.5415006709072,596.609450398626,1111.8051330381006,603.0748403371836,1117.9650904867822C605.7014049997224,1120.388680302657,611.358621195961,1119.8837657576828,614.5913161652397,1122.6103043005417C619.3393369013675,1126.6496206603329,625.097574815396,1127.7604326592752,630.5527475760537,1129.780090839171C638.2303981280911,1132.7085952000195,646.3121355512885,1133.6174413809724,654.292851256695,1135.5361166518733C673.4869776367887,1139.9793646476437,692.9841691702522,1142.503937372513,712.6834041392949,1142.8068860994974C718.8457289244825,1142.907869008492,724.3009016851411,1143.9176980984398,728.4427921145289,1148.0579973672259C738.2418987401552,1157.550390812735,751.4757437706403,1160.9838097185575,762.7901761631165,1167.648681712213C776.2260646291816,1175.5253486138056,791.7834091688355,1178.049921338675,806.5325799661714,1182.4931693344454C808.6540360397603,1183.099066788414,810.5734486777692,1183.4020155153985,812.492861315779,1181.9882547894713C816.7357734629577,1178.8577846106334,820.9786856101364,1175.82829734079,825.3226194751051,1172.6978271619519C824.5144457327851,1171.8899638899936,824.1103588616243,1171.284066436025,823.7062719904652,1171.1830835270302C793.7028218068453,1164.41722862438,769.659652972834,1147.7550486402415,748.1420270835715,1126.649620660333C745.0103538320836,1123.6201333904896,744.7072886787137,1121.29752648361,746.5256795989326,1117.3591930328134C755.920699353399,1096.8596625068735,764.4065236477563,1076.0571832539492,771.3770221752629,1054.5478236380616C772.5892827887428,1050.7104730962599,774.8117605801226,1048.6908149163644,778.6505858561404,1047.4790200084271C819.8674467144465,1034.2502589301112,859.5689818059018,1017.3861131279832,896.0378219280792,993.7561124232051C898.664386590618,992.0394029702938,900.5837992286279,991.8374371523043,903.1093421733767,993.9580782411947C923.6167508847393,1010.620258225333,946.2456156696917,1023.849019303649,969.4806107613831,1036.2699171100066C974.1276097797218,1038.794489834876,975.1378269576217,1041.4200454687402,974.3296532153017,1046.2672251004897C970.793893092653,1066.968721444419,965.8438289209444,1087.1653032433746,958.5702652400669,1106.8569704973565C957.459026344377,1109.8864577671998,956.246765730898,1112.7139792190535,953.9232662217282,1115.339534852918C951.0946581236103,1118.470005031756,949.1752454856005,1122.6103043005419,949.0742237678105,1126.9525693873175C951.4987449947694,1128.6692788402286,953.6202010683592,1128.7702617492234,955.741657141948,1129.1741933852027C964.1264597185145,1130.6889370201243,964.3285031540945,1130.789919929119,968.3693718656932,1123.4181675725001C980.3909562826993,1101.5048763206332,992.1094755463346,1079.2886363417822,998.2718003315231,1054.9517552740408C1001.1004084296419,1043.6416694666254,1005.2422988590297,1034.1492760211163,1015.9506009447668,1028.3932502084142C1018.5771656073057,1026.9794894824872,1020.5975999631055,1024.5558996666125,1022.7190560366944,1022.4352585777223C1044.2366819259569,1002.036710960777,1060.7032219257208,977.9017957110251,1074.1391103917867,951.6462393723828C1078.6850876923345,942.8607262898371,1083.3320867106722,937.1047004771348,1094.1414105141985,935.4889739332183C1110.1028419250133,933.0653841173437,1110.0018202072233,931.9545721184011,1112.8304283053421,916.5041870422001C1113.436558612082,914.2825630443149,1114.749840943352,912.3638877734141,1113.436558612082,909.637349230555ZZM637.5232461035612,939.3263244750199C610.954534324801,949.1216666475134,584.4868442638306,959.2199575469912,558.0191542028599,969.3182484464689C554.3823723624212,970.7320091723958,551.8568294176723,969.8231629914428,548.9271996017635,967.8035048115473C538.2188975160273,960.3307695459337,529.0259211971404,951.1413248274089,520.0349883138335,941.7499142908946C506.3970564121885,927.6123070316257,493.9713851240224,912.4648706824089,481.7477572714372,897.1154685152027C479.22221432668834,893.9849983363645,477.8079102776285,890.551579430542,477.20177997088854,886.512263070751C474.3731718727697,868.8402539966648,477.4038234064685,851.5721765585577,480.3334532223778,834.4050820294455C483.16206132049706,817.7429020453071,487.4049734676753,801.383670788153,491.9509507682235,785.1254224399938C493.0621896639134,781.0861060802026,494.57751543076233,777.2487555384012,494.37547199518235,772.8055075426308C494.1734285596028,767.756362092892,498.820427577941,764.0199944600852,499.8306447558409,759.1728148283358C529.9351166572499,751.7000795627223,560.1406102764493,744.3283272061034,590.1440604600687,736.4516603045108C596.710472116416,734.7349508515995,601.1554276991747,735.5428141235577,606.2065135886724,740.4909766643019C626.1077919932959,760.2836268272783,646.2111138334985,779.9752940812601,666.7185225448611,798.9600809722783C672.0726735877297,803.9082435130224,672.4767604588887,808.5534573267823,670.9614346920398,814.7134147754637C665.9103488025412,835.2129453014036,661.0613063486235,855.7124758273437,656.2122638947048,876.2120063532835C655.3030684345949,879.9483739860904,654.797959845645,883.8867074368867,654.090807821115,887.7240579786883C650.8581128518372,902.1646139649415,647.5243961647675,916.5041870422,644.4937446310687,930.9447430284532C643.5845491709597,935.1860252062339,641.8671799685299,937.811580840098,637.5232461035612,939.3263244750199ZZM901.3919729709478,927.0064095776569C899.573582050728,942.8607262898371,897.1490608237682,958.7150430020172,895.1286264679693,974.5693597141974C894.7245395968102,977.901795711025,893.8153441367003,980.0224367999153,890.4816274496316,981.3352146168475C853.2046135851342,995.4728218761164,815.9275997206378,1009.4084633173958,776.3270863469725,1015.5684207660772C770.0637398439949,1016.578249856025,764.8106105189154,1015.7703865840668,759.2544160404677,1012.1350018602548C730.3622047525387,993.0492320602418,704.6016667160975,970.3280775364167,679.8513458575562,946.2941451956594C676.8206943238574,943.365640834811,676.4166074526975,940.2351706559728,676.5176291704875,936.4988030231659C676.7196726060674,923.4720077628397,678.1339766551273,910.5461954115079,679.2452155508163,897.6203830601764C679.3462372686063,896.1056394252548,679.2452155508163,894.5908957903331,679.2452155508163,893.0761521554114C682.376888802306,879.8473910770955,682.578932237885,866.2146983628004,684.5993665936849,852.783971466495C686.3167357961138,841.4738856590798,687.7310398451737,830.06281694267,688.9433004586535,818.65174822626C689.5494307653926,813.2996540495369,691.6708868389824,810.2701667796935,697.02503788185,808.250508599798C733.0897911328675,795.1227304304768,768.952500948305,781.792986443166,804.9162324815325,768.2612766378659C810.0683400888202,766.342601366965,813.6041002114689,766.7465330029443,817.8470123586467,770.4829006357511C834.0104872050415,784.62050789502,849.3657883091164,799.4649955172524,864.7210894131904,814.5114489574743C870.075240456058,819.7625602252028,879.5712819283153,828.750039125738,879.5712819283153,828.750039125738L880.9855859773743,830.06281694267C880.9855859773743,830.06281694267,894.2194310078603,844.200424201939,900.9878860997878,850.9662791045891C905.4328416825456,855.4095271003594,907.1502108849754,860.0547409141192,906.8471457316055,866.2146983628006C905.9379502714955,886.8152117977354,903.7154724801167,906.9108106876961,901.3919729709478,927.0064095776569ZZM1027.2650333372421,781.3890548071869C1027.164011619453,781.9949522611555,1027.164011619453,782.6008497151242,1027.062989901663,783.2067471690929C1024.3354035213342,802.9993973320693,1024.3354035213342,802.8984144230745,1005.6463857301906,808.9573889627612C982.7144557918691,816.3291413193799,959.7825258535458,823.8018765849936,937.0526393508044,831.5775605775915C932.2035968968867,833.2942700305027,928.7688584920279,832.688372576534,924.7279897804292,829.5579023976959C915.5350134615428,822.4890987680615,906.0389719892855,815.9252096834009,896.6439522348192,809.1593547807507C881.9958031552742,796.5364911564035,865.8323283088794,785.9332857119518,850.4770272048054,774.2192682685575C842.7993766527688,768.3622595468604,835.0207043829405,762.5052508251632,827.141010395324,756.9511908304505C823.8072937082552,754.5276010145758,822.6960548125653,751.9020453807116,822.8980982481453,747.7617461119256C824.7164891683642,715.4472152335966,826.534880088584,683.2336672642625,827.949184137643,650.9191363859335C828.252249291013,644.9611447552415,830.4747270823927,641.8306745764035,835.7278564074713,639.2051189425392C860.1751121126426,627.3901185901501,885.127476406763,616.7869131456985,910.2818841364642,606.6886222462207C913.110492234583,605.5778102472781,918.4646432774516,602.9522546134139,918.4646432774516,602.9522546134139C918.4646432774516,602.9522546134139,992.8166275708654,649.9093072959856,1022.1129257299544,683.6375989002414C1025.6486858526032,687.6769152600325,1027.467076772822,691.9181974378132,1027.770141926192,697.3712745235313C1029.689554564202,725.4445232240796,1030.8007934598909,753.4167890156331,1027.2650333372421,781.3890548071869ZZ" style="overflow: visible; fill: url(&quot;#0d881c20-e1ef-11ec-837f-eb6646ed3f11-SVGID_00000054267458367881544770000014227533885035913904_&quot;);"/></g></g></g><g id="shape-1be7172f-e1e6-11ec-aede-394e4b22a99d"><defs><radialGradient cx="514.83" cy="699.603" r="910.816" id="0d897bb0-e1ef-11ec-837f-eb6646ed3f11-SVGID_00000145055894669682456550000015002306370759221682_" gradientTransform="matrix(1.009928472296359,0,0,1.0099284722963593,172.02103128002517,18.816590156933955) translate(2.24 -26.24) scale(1.0284)" gradientUnits="userSpaceOnUse"><stop offset="0" style="stop-color: rgb(26, 126, 194);"/><stop offset=".094" style="stop-color: rgb(28, 101, 155);"/><stop offset=".23" style="stop-color: rgb(25, 71, 111);"/><stop offset=".366" style="stop-color: rgb(18, 49, 78);"/><stop offset=".5" style="stop-color: rgb(11, 30, 52);"/><stop offset=".632" style="stop-color: rgb(4, 15, 32);"/><stop offset=".761" style="stop-color: rgb(0, 2, 16);"/><stop offset=".885" style="stop-color: rgb(0, 0, 3);"/><stop offset="1" style="stop-color: rgb(0, 0, 0);"/></radialGradient><path id="0d897bb0-e1ef-11ec-837f-eb6646ed3f11-SVGID_00000111157373525165104270000012927458158400874376_" d="M932.1 881.8c-4.6-.8-9.1 1.5-13.8 1.9-12.6 1.2-12.6 1.3-15.2-10.9-5.7-25.9-16-50.1-27.5-73.8-5.9-12.1-8.7-23.8-7.8-37.6 2.1-30.5.1-61-4.4-91.3-1.1-7.5-1-7.5 5.9-10.6 8.5-3.8 16.9-7.6 25.4-11.2 3.5-1.5 4.3-2.9 2.5-6.7-3.7-7.8-8.1-15.2-13.3-22-22-28.6-47.2-54.1-74.7-77.3-2.3-1.9-4.6-3.8-7.1-5.4-11.7-7.3-22.8-15.6-34.2-23.3-14.2-9.6-29.3-15.7-45.6-19.9-1.4-.4-2.9-.6-4.2 1 5.4 18.5 9.6 37.5 14 56.4.1.6.1 1.1.2 1.7v7.5c-1.9.2-3.7.5-5.4 1.7l-.6.1c-1.8-.4-3.5.2-5.3.6-23.2 5.6-46.1 12.6-68.2 21.6-13.2 5.3-24.9 6.1-38.5 1-29.5-10.9-60.5-15.5-91.8-18-4.3-.3-7.1-1.4-9.1-5.5-6.7-13.7-13.5-27.4-20.6-40.8-2.3-4.3-1.3-6.2 2.8-8.2 11.6-5.6 22.9-11.7 34.4-17.4 9.6-4.8 19.5-9.1 29.8-12.4 3.8-1.3 5.2-3 4.3-7.2-.8-3.7-1.7-6.1-6.2-5.5-3.8.6-7.8.5-11.6.9-28.7 3.2-56.2 11.1-82.9 22.2-26.9 11.2-52.1 25.5-75.9 42.2-5.4 3.8-5.1 3.9-2.4 9.2 1.8 3.4 3.9 4 7.2 2.6 2.2-1 4.4-1.8 6.7-2.6 22.7-8.3 45.4-16.9 69-22.5 6.6-1.6 6.7-1.5 8.5 5 3.7 12.9 7.1 25.9 10.9 38.9 1.4 4.7 1.2 8.2-2.9 11.8-6.6 5.7-11.9 12.6-17.3 19.4-16.4 20.8-31.6 42.5-44.7 65.6-3.5 6.1-7.5 10.7-14.6 13.4-26.7 10.5-53.1 21.8-79.6 32.8-2.5 1-4.8 2.4-7.7 2.2-12.6-21.6-19.4-45.4-27.1-69.5-9.9 14.5-22.7 42.3-30.3 65.6-4.9 15.1-10.1 30.2-11.2 46.3-1.3 1.6-1.5 3.4-1.1 5.4-.2 1.8-.4 3.6-.7 5.4-1.7 2.8-1.6 5.8-1.3 8.9-4.2 27.3-4 54.7-1.1 82.1 1 9.8 2.7 19.5 4.8 29.2.6 2.9 2 4.8 4.7 3.1 7.9-5.1 16.9-7.7 25.4-11.3 7.5-3.2 7.6-2.9 11.6 3.9 5.4 9.1 10.5 18.4 17.2 26.8 11.4 14.5 23.3 28.6 34.7 43 1.6 2.1 3.9 3.6 5.8 5.4 4.9 4.6 11.3 8.3 12.7 15.7 2.9 15.8 7.6 31.1 12.3 46.3 4.8 15.7 10.7 31.2 20.4 44.8 3.2 4.5 3.1 6.2-1.7 9.6-6.2 4.3-10.8 10.8-18.6 13.1-1.1.3-2.9 2.6-1.9 4.3 2 3.2 5.1 5.7 7.7 8.5 1.8 1.9 3.3-2.3 5.6-2.9 7.1-1.9 14.2-4.3 21-7 5.9-2.4 11-6.1 17.4 0 2.6 2.4 8.2 1.9 11.4 4.6 4.7 4 10.4 5.1 15.8 7.1 7.6 2.9 15.6 3.8 23.5 5.7 19 4.4 38.3 6.9 57.8 7.2 6.1.1 11.5 1.1 15.6 5.2 9.7 9.4 22.8 12.8 34 19.4 13.3 7.8 28.7 10.3 43.3 14.7 2.1.6 4 .9 5.9-.5 4.2-3.1 8.4-6.1 12.7-9.2-.8-.8-1.2-1.4-1.6-1.5-29.7-6.7-53.5-23.2-74.8-44.1-3.1-3-3.4-5.3-1.6-9.2 9.3-20.3 17.7-40.9 24.6-62.2 1.2-3.8 3.4-5.8 7.2-7 40.8-13.1 80.1-29.8 116.2-53.2 2.6-1.7 4.5-1.9 7 .2 20.3 16.5 42.7 29.6 65.7 41.9 4.6 2.5 5.6 5.1 4.8 9.9-3.5 20.5-8.4 40.5-15.6 60-1.1 3-2.3 5.8-4.6 8.4-2.8 3.1-4.7 7.2-4.8 11.5 2.4 1.7 4.5 1.8 6.6 2.2 8.3 1.5 8.5 1.6 12.5-5.7 11.9-21.7 23.5-43.7 29.6-67.8 2.8-11.2 6.9-20.6 17.5-26.3 2.6-1.4 4.6-3.8 6.7-5.9 21.3-20.2 37.6-44.1 50.9-70.1 4.5-8.7 9.1-14.4 19.8-16 15.8-2.4 15.7-3.5 18.5-18.8.6-2.2 1.9-4.1.6-6.8zM461 911.2c-26.3 9.7-52.5 19.7-78.7 29.7-3.6 1.4-6.1.5-9-1.5-10.6-7.4-19.7-16.5-28.6-25.8-13.5-14-25.8-29-37.9-44.2-2.5-3.1-3.9-6.5-4.5-10.5-2.8-17.5.2-34.6 3.1-51.6 2.8-16.5 7-32.7 11.5-48.8 1.1-4 2.6-7.8 2.4-12.2-.2-5 4.4-8.7 5.4-13.5 29.8-7.4 59.7-14.7 89.4-22.5 6.5-1.7 10.9-.9 15.9 4 19.7 19.6 39.6 39.1 59.9 57.9 5.3 4.9 5.7 9.5 4.2 15.6-5 20.3-9.8 40.6-14.6 60.9-.9 3.7-1.4 7.6-2.1 11.4-3.2 14.3-6.5 28.5-9.5 42.8-.9 4.2-2.6 6.8-6.9 8.3zM722.2 899c-1.8 15.7-4.2 31.4-6.2 47.1-.4 3.3-1.3 5.4-4.6 6.7-36.9 14-73.8 27.8-113 33.9-6.2 1-11.4.2-16.9-3.4-28.6-18.9-54.1-41.4-78.6-65.2-3-2.9-3.4-6-3.3-9.7.2-12.9 1.6-25.7 2.7-38.5.1-1.5 0-3 0-4.5 3.1-13.1 3.3-26.6 5.3-39.9 1.7-11.2 3.1-22.5 4.3-33.8.6-5.3 2.7-8.3 8-10.3 35.7-13 71.2-26.2 106.8-39.6 5.1-1.9 8.6-1.5 12.8 2.2 16 14 31.2 28.7 46.4 43.6 5.3 5.2 14.7 14.1 14.7 14.1l1.4 1.3s13.1 14 19.8 20.7c4.4 4.4 6.1 9 5.8 15.1-.9 20.4-3.1 40.3-5.4 60.2zm124.6-144.2c-.1.6-.1 1.2-.2 1.8-2.7 19.6-2.7 19.5-21.2 25.5-22.7 7.3-45.4 14.7-67.9 22.4-4.8 1.7-8.2 1.1-12.2-2-9.1-7-18.5-13.5-27.8-20.2-14.5-12.5-30.5-23-45.7-34.6-7.6-5.8-15.3-11.6-23.1-17.1-3.3-2.4-4.4-5-4.2-9.1 1.8-32 3.6-63.9 5-95.9.3-5.9 2.5-9 7.7-11.6 24.2-11.7 48.9-22.2 73.8-32.2 2.8-1.1 8.1-3.7 8.1-3.7s73.6 46.5 102.6 79.9c3.5 4 5.3 8.2 5.6 13.6 1.9 27.8 3 55.5-.5 83.2z"/><clipPath id="0d897bb0-e1ef-11ec-837f-eb6646ed3f11-SVGID_00000008150791098134372160000006513938260690557853_" transform="matrix(1.009928472296359,0,0,1.0099284722963593,172.02103128002517,18.816590156933955)"><use xlink:href="#0d897bb0-e1ef-11ec-837f-eb6646ed3f11-SVGID_00000111157373525165104270000012927458158400874376_" style="overflow: visible;"/></clipPath></defs><g id="fills-1be7172f-e1e6-11ec-aede-394e4b22a99d"><ellipse rx="945.9999999999997" ry="945.9999999999999" cx="708.9999999999994" cy="718.9999999999999" transform="matrix(1,0,0,1,0,0)" style="clip-path: url(&quot;#0d897bb0-e1ef-11ec-837f-eb6646ed3f11-SVGID_00000008150791098134372160000006513938260690557853_&quot;); fill: url(&quot;#0d897bb0-e1ef-11ec-837f-eb6646ed3f11-SVGID_00000145055894669682456550000015002306370759221682_&quot;);"/></g></g><g id="shape-1be71730-e1e6-11ec-aede-394e4b22a99d" rx="0" ry="0" style="overflow: visible; fill: url(&quot;#0d8adb40-e1ef-11ec-837f-eb6646ed3f11-SVGID_00000082366817864240316750000002423025234002985350_&quot;);"><defs><radialGradient cx="625.634" cy="382.262" r="450.016" id="0d8adb40-e1ef-11ec-837f-eb6646ed3f11-SVGID_00000082366817864240316750000002423025234002985350_" gradientTransform="matrix(1.0101208607644736,0,0,1.0098103335513366,172.01788346270925,19) matrix(1 0 0 .6 0 152.905)" gradientUnits="userSpaceOnUse" class="svg-def"><stop offset="0" style="stop-color: rgb(26, 126, 194);"/><stop offset=".12" style="stop-color: rgb(26, 123, 189);"/><stop offset=".266" style="stop-color: rgb(28, 112, 173);"/><stop offset=".427" style="stop-color: rgb(29, 96, 149);"/><stop offset=".597" style="stop-color: rgb(27, 76, 119);"/><stop offset=".775" style="stop-color: rgb(22, 53, 84);"/><stop offset=".957" style="stop-color: rgb(13, 28, 48);"/><stop offset="1" style="stop-color: rgb(10, 21, 39);"/></radialGradient></defs><g id="shape-1be7173a-e1e6-11ec-aede-394e4b22a99d"><defs><radialGradient cx="625.634" cy="382.262" r="450.016" id="0d8b9e90-e1ef-11ec-837f-eb6646ed3f11-SVGID_00000082366817864240316750000002423025234002985350_" gradientTransform="matrix(1.0101208607644687,0,0,1.0098103335513406,172.01788346270985,19) matrix(1 0 0 .6 0 152.905)" gradientUnits="userSpaceOnUse"><stop offset="0" style="stop-color: rgb(26, 126, 194);"/><stop offset=".12" style="stop-color: rgb(26, 123, 189);"/><stop offset=".266" style="stop-color: rgb(28, 112, 173);"/><stop offset=".427" style="stop-color: rgb(29, 96, 149);"/><stop offset=".597" style="stop-color: rgb(27, 76, 119);"/><stop offset=".775" style="stop-color: rgb(22, 53, 84);"/><stop offset=".957" style="stop-color: rgb(13, 28, 48);"/><stop offset="1" style="stop-color: rgb(10, 21, 39);"/></radialGradient></defs><g id="fills-1be7173a-e1e6-11ec-aede-394e4b22a99d"><path rx="0" ry="0" d="M775.262061511251,438.4752125572269C1128.0972781762794,454.73315892740345,1162.744423700501,789.7882275997383,1162.9464478726532,791C1317.8989879139235,387.98469587965985,1317.999999999999,19,1317.999999999999,19C676.1692050702559,57.675735775016165,289.9999999999998,232.87782864617407,289.9999999999998,232.87782864617407C315.75808194949354,521.4816219751472,368.99145131178125,714.9612818835841,385.5574334283185,769.7939829954219C468.99341652746375,426.9633747547416,775.262061511251,438.4752125572269,775.262061511251,438.4752125572269ZZ" style="overflow: visible; fill: url(&quot;#0d8b9e90-e1ef-11ec-837f-eb6646ed3f11-SVGID_00000082366817864240316750000002423025234002985350_&quot;);"/></g></g></g><g id="shape-1be71731-e1e6-11ec-aede-394e4b22a99d"><defs><clipPath id="0d8c88f0-e1ef-11ec-837f-eb6646ed3f11-SVGID_00000085963588307837389630000001222698592056034999_" transform="matrix(1.009928472296359,0,0,1.0099284722963593,172.02103128002517,18.816590156933955)"><use xlink:href="#0d8c88f0-e1ef-11ec-837f-eb6646ed3f11-SVGID_00000152972368833192077530000010471242779729893296_" style="overflow: visible;"/></clipPath><path id="0d8c88f0-e1ef-11ec-837f-eb6646ed3f11-SVGID_00000152972368833192077530000010471242779729893296_" d="M597.2 415.4C946.5 431.5 980.8 763.3 981 764.5 1134.4 365.4 1134.5 0 1134.5 0 499.1 38.3 116.8 211.8 116.8 211.8c25.5 285.8 78.2 477.4 94.6 531.7C294 404 597.2 415.4 597.2 415.4z"/><radialGradient cx="514.83" cy="699.603" r="910.816" id="0d8c88f0-e1ef-11ec-837f-eb6646ed3f11-SVGID_00000044160201626463980800000016260136336659959707_" gradientTransform="matrix(1.009928472296359,0,0,1.0099284722963593,172.02103128002517,18.816590156933955) matrix(1.0284 0 0 .6171 2.24 261.56)" gradientUnits="userSpaceOnUse"><stop offset="0" style="stop-color: rgb(26, 126, 194);"/><stop offset=".12" style="stop-color: rgb(26, 123, 189);"/><stop offset=".266" style="stop-color: rgb(28, 112, 173);"/><stop offset=".427" style="stop-color: rgb(29, 96, 149);"/><stop offset=".597" style="stop-color: rgb(27, 76, 119);"/><stop offset=".775" style="stop-color: rgb(22, 53, 84);"/><stop offset=".957" style="stop-color: rgb(13, 28, 48);"/><stop offset="1" style="stop-color: rgb(10, 21, 39);"/></radialGradient></defs><g id="fills-1be71731-e1e6-11ec-aede-394e4b22a99d"><ellipse rx="945.9999999999997" ry="945.9999999999999" cx="708.9999999999994" cy="718.9999999999999" transform="matrix(1,0,0,1,0,0)" style="clip-path: url(&quot;#0d8c88f0-e1ef-11ec-837f-eb6646ed3f11-SVGID_00000085963588307837389630000001222698592056034999_&quot;); fill: url(&quot;#0d8c88f0-e1ef-11ec-837f-eb6646ed3f11-SVGID_00000044160201626463980800000016260136336659959707_&quot;);"/></g></g><g id="shape-1be71732-e1e6-11ec-aede-394e4b22a99d"><defs><clipPath id="0d8dc170-e1ef-11ec-837f-eb6646ed3f11-SVGID_00000010310158036181219050000001605095902406958981_" transform="matrix(1.0104137348719393,0,0,1.009493670886076,171.9135941457925,18.690189873417946)"><use xlink:href="#0d8dc170-e1ef-11ec-837f-eb6646ed3f11-SVGID_00000157276458635345566720000011980228192786742956_" style="overflow: visible;"/></clipPath><path id="0d8dc170-e1ef-11ec-837f-eb6646ed3f11-SVGID_00000157276458635345566720000011980228192786742956_" d="M429.2 150.6s196.5 1.7 432.3 191.5L752.1 476.5S643 427.6 553.4 439.9c0 0-41.9-173.3-124.2-289.3z"/><linearGradient x1="156.924" y1="183.128" x2="999.893" y2="183.128" id="0d8dc170-e1ef-11ec-837f-eb6646ed3f11-SVGID_00000079465116847156175110000003705957093727849109_" gradientUnits="userSpaceOnUse" gradientTransform="matrix(1.0104137348719393,0,0,1.009493670886076,171.9135941457925,18.690189873417946) rotate(72.043 438.25 442.869)"><stop offset="0" style="stop-color: rgb(26, 126, 194);"/><stop offset=".086" style="stop-color: rgb(26, 121, 187);"/><stop offset=".218" style="stop-color: rgb(28, 109, 168);"/><stop offset=".378" style="stop-color: rgb(28, 90, 138);"/><stop offset=".561" style="stop-color: rgb(23, 65, 102);"/><stop offset=".763" style="stop-color: rgb(14, 36, 60);"/><stop offset=".978" style="stop-color: rgb(0, 1, 6);"/><stop offset="1" style="stop-color: rgb(0, 0, 0);"/></linearGradient></defs><g id="fills-1be71732-e1e6-11ec-aede-394e4b22a99d"><path rx="0" ry="0" d="M811.6065296932165,998.0000000000002L549.0000000000002,188.48702531645586L1004.4945116802701,41.00000000000023L1267,850.5129746835446Z" style="clip-path: url(&quot;#0d8dc170-e1ef-11ec-837f-eb6646ed3f11-SVGID_00000010310158036181219050000001605095902406958981_&quot;); fill: url(&quot;#0d8dc170-e1ef-11ec-837f-eb6646ed3f11-SVGID_00000079465116847156175110000003705957093727849109_&quot;);"/></g></g><g id="shape-1be71733-e1e6-11ec-aede-394e4b22a99d"><defs><path id="0d8f6f20-e1ef-11ec-837f-eb6646ed3f11-SVGID_00000059277171600241208920000012782959326417126053_" d="M141.6 414s174.5-46.8 390.1 16.9c0 0-205.8 80.5-235.8 149 0 0-40.9-75.3-154.3-165.9z"/><linearGradient x1="103.025" y1="484.707" x2="945.995" y2="484.707" id="0d8f6f20-e1ef-11ec-837f-eb6646ed3f11-SVGID_00000044856187838420813530000003143827539496853144_" gradientUnits="userSpaceOnUse" gradientTransform="matrix(1.0094899169632257,0,0,1.0109750949767835,172.02253855278752,18.480371464753034)"><stop offset="0" style="stop-color: rgb(26, 126, 194);"/><stop offset=".086" style="stop-color: rgb(26, 121, 187);"/><stop offset=".218" style="stop-color: rgb(28, 109, 168);"/><stop offset=".378" style="stop-color: rgb(28, 90, 138);"/><stop offset=".561" style="stop-color: rgb(23, 65, 102);"/><stop offset=".763" style="stop-color: rgb(14, 36, 60);"/><stop offset=".978" style="stop-color: rgb(0, 1, 6);"/><stop offset="1" style="stop-color: rgb(0, 0, 0);"/></linearGradient><clipPath id="0d8f6f20-e1ef-11ec-837f-eb6646ed3f11-SVGID_00000121957736078712998770000000126797887394788509_" transform="matrix(1.0094899169632257,0,0,1.0109750949767835,172.02253855278752,18.480371464753034)"><use xlink:href="#0d8f6f20-e1ef-11ec-837f-eb6646ed3f11-SVGID_00000059277171600241208920000012782959326417126053_" style="overflow: visible;"/></clipPath></defs><g id="fills-1be71733-e1e6-11ec-aede-394e4b22a99d"><path rx="0" ry="0" d="M275.9999999999998,269L1126.999999999999,269L1126.999999999999,748L275.9999999999998,748Z" style="clip-path: url(&quot;#0d8f6f20-e1ef-11ec-837f-eb6646ed3f11-SVGID_00000121957736078712998770000000126797887394788509_&quot;); fill: url(&quot;#0d8f6f20-e1ef-11ec-837f-eb6646ed3f11-SVGID_00000044856187838420813530000003143827539496853144_&quot;);"/></g></g><g id="shape-1be71734-e1e6-11ec-aede-394e4b22a99d"><defs><clipPath id="0d908090-e1ef-11ec-837f-eb6646ed3f11-SVGID_00000093140421639208804020000018061667473014522526_" transform="matrix(1.0094899169632265,0,0,1.0101010101010102,172.30533807829102,18.555555555555543)"><use xlink:href="#0d908090-e1ef-11ec-837f-eb6646ed3f11-SVGID_00000008136925110499053500000006760542275292045208_" style="overflow: visible;"/></clipPath><path id="0d908090-e1ef-11ec-837f-eb6646ed3f11-SVGID_00000008136925110499053500000006760542275292045208_" d="M1114.7 220s-171 46.4-337.4 256.5c0 0 147.3 81 202.9 291 0 .1 116.6-286.3 134.5-547.5z"/><linearGradient x1="747.648" y1="499.399" x2="1590.618" y2="499.399" id="0d908090-e1ef-11ec-837f-eb6646ed3f11-SVGID_00000178926884938692225930000010617365655281506206_" gradientUnits="userSpaceOnUse" gradientTransform="matrix(1.0094899169632265,0,0,1.0101010101010102,172.30533807829102,18.555555555555543)"><stop offset="0" style="stop-color: rgb(26, 126, 194);"/><stop offset=".086" style="stop-color: rgb(26, 121, 187);"/><stop offset=".218" style="stop-color: rgb(28, 109, 168);"/><stop offset=".378" style="stop-color: rgb(28, 90, 138);"/><stop offset=".561" style="stop-color: rgb(23, 65, 102);"/><stop offset=".763" style="stop-color: rgb(14, 36, 60);"/><stop offset=".978" style="stop-color: rgb(0, 1, 6);"/><stop offset="1" style="stop-color: rgb(0, 0, 0);"/></linearGradient></defs><g id="fills-1be71734-e1e6-11ec-aede-394e4b22a99d"><path rx="0" ry="0" d="M926.9999999999991,213L1777.999999999999,213L1777.999999999999,833L926.9999999999991,833Z" style="clip-path: url(&quot;#0d908090-e1ef-11ec-837f-eb6646ed3f11-SVGID_00000093140421639208804020000018061667473014522526_&quot;); fill: url(&quot;#0d908090-e1ef-11ec-837f-eb6646ed3f11-SVGID_00000178926884938692225930000010617365655281506206_&quot;);"/></g></g><g id="shape-1be71735-e1e6-11ec-aede-394e4b22a99d"><g id="fills-1be71735-e1e6-11ec-aede-394e4b22a99d"><path class="st0" rx="0" ry="0" d="M774.5096153846162,438.0466753445751C774.5096153846162,438.0466753445751,468.4951923076926,426.44588814741735,385.0000000000002,769.0221779000083L385.0000000000002,769.1230543104184L389.9471153846155,785.0615271552092C389.9471153846155,785.0615271552092,452.44230769230785,500.5900497988173,742.1009615384619,475.6735764275305C1027.0144230769229,451.16060869788396,1142.0096153846162,712.5313880703702,1157.7596153846152,801L1162,790.1053476757127C1161.7980769230771,788.9957071612018,1127.1682692307695,454.28777742059617,774.5096153846162,438.0466753445751ZZ" style="fill: rgb(0, 71, 119); fill-opacity: 1;"/></g></g><g id="shape-1be71736-e1e6-11ec-aede-394e4b22a99d"><g id="fills-1be71736-e1e6-11ec-aede-394e4b22a99d"><path rx="0" ry="0" d="M526.9999999999998,1141C526.9999999999998,1141,720.0469181232747,1256.1415508622058,965.9999999999991,1163.4053803161187L948.6338546458128,1190.5329708333923C790.5211591536336,1266.0883340518728,645.0292088316455,1228.9134877874608,533.8656853725845,1154.865212931051C533.9666513339464,1154.865212931051,529.9280128794846,1147.4302436781686,526.9999999999998,1141ZZ" style="fill: rgb(22, 49, 79);"/></g></g><g id="shape-1be71737-e1e6-11ec-aede-394e4b22a99d"><g id="fills-1be71737-e1e6-11ec-aede-394e4b22a99d"><path class="st11" rx="0" ry="0" d="M786.0000000000009,1294.2192084715825L752.5739821251245,1304.4268882572699L734.9493545183723,1294.2192084715825L752.5739821251245,1283.9104625494028ZM734.9493545183723,1245L746.6991062562065,1274.1070473096831L734.9493545183723,1289.4691000564605L723.0983118172799,1274.1070473096831ZM684.0000000000009,1294.2192084715825L717.3247269116191,1283.9104625494028L734.9493545183723,1294.2192084715825L717.3247269116191,1304.4268882572699ZM769.590863952335,1372.747596525832C758.8540218470707,1350.6141126340935,736.671300893745,1298.2618539312607,734.9493545183723,1294.2192084715825C733.2274081430005,1298.2618539312607,711.0446871896729,1350.6141126340935,700.3078450844105,1372.747596525832C686.8361469712027,1400.6418501976118,706.7904667328703,1375.6785144840987,706.7904667328703,1375.6785144840987C706.7904667328703,1375.6785144840987,717.0208540218482,1361.327123102241,713.273088381331,1382.146747219584C711.1459781529302,1393.9714851891429,723.7060575968226,1377.2955726679702,723.7060575968226,1377.2955726679702C723.7060575968226,1377.2955726679702,734.0377358490568,1390.0299058659566,734.848063555115,1397.2056015568855C734.848063555115,1398.620527467773,734.9493545183723,1399.2269242867246,734.9493545183723,1398.9237258772487C735.0506454816286,1399.2269242867246,735.0506454816286,1398.620527467773,735.0506454816286,1397.2056015568855C735.8609731876868,1389.9288397294647,746.1926514399211,1377.2955726679702,746.1926514399211,1377.2955726679702C746.1926514399211,1377.2955726679702,758.7527308838144,1394.0725513256348,756.6256206554126,1382.146747219584C752.8778550148963,1361.2260569657492,763.1082423038733,1375.6785144840987,763.1082423038733,1375.6785144840987C763.1082423038733,1375.6785144840987,783.0625620655419,1400.6418501976118,769.590863952335,1372.747596525832ZZ" style="fill: rgb(255, 255, 255); fill-opacity: 1;"/></g><g id="strokes-1be71737-e1e6-11ec-aede-394e4b22a99d"><g class="stroke-shape"><path class="st11" rx="0" ry="0" d="M786.0000000000009,1294.2192084715825L752.5739821251245,1304.4268882572699L734.9493545183723,1294.2192084715825L752.5739821251245,1283.9104625494028ZM734.9493545183723,1245L746.6991062562065,1274.1070473096831L734.9493545183723,1289.4691000564605L723.0983118172799,1274.1070473096831ZM684.0000000000009,1294.2192084715825L717.3247269116191,1283.9104625494028L734.9493545183723,1294.2192084715825L717.3247269116191,1304.4268882572699ZM769.590863952335,1372.747596525832C758.8540218470707,1350.6141126340935,736.671300893745,1298.2618539312607,734.9493545183723,1294.2192084715825C733.2274081430005,1298.2618539312607,711.0446871896729,1350.6141126340935,700.3078450844105,1372.747596525832C686.8361469712027,1400.6418501976118,706.7904667328703,1375.6785144840987,706.7904667328703,1375.6785144840987C706.7904667328703,1375.6785144840987,717.0208540218482,1361.327123102241,713.273088381331,1382.146747219584C711.1459781529302,1393.9714851891429,723.7060575968226,1377.2955726679702,723.7060575968226,1377.2955726679702C723.7060575968226,1377.2955726679702,734.0377358490568,1390.0299058659566,734.848063555115,1397.2056015568855C734.848063555115,1398.620527467773,734.9493545183723,1399.2269242867246,734.9493545183723,1398.9237258772487C735.0506454816286,1399.2269242867246,735.0506454816286,1398.620527467773,735.0506454816286,1397.2056015568855C735.8609731876868,1389.9288397294647,746.1926514399211,1377.2955726679702,746.1926514399211,1377.2955726679702C746.1926514399211,1377.2955726679702,758.7527308838144,1394.0725513256348,756.6256206554126,1382.146747219584C752.8778550148963,1361.2260569657492,763.1082423038733,1375.6785144840987,763.1082423038733,1375.6785144840987C763.1082423038733,1375.6785144840987,783.0625620655419,1400.6418501976118,769.590863952335,1372.747596525832ZZ" style="fill: none; stroke-width: 3; stroke: rgb(22, 49, 79); stroke-opacity: 1;"/></g></g></g></g></g></g></g></svg>