<?xml version="1.0" encoding="UTF-8" standalone="no"?>
<svg
   xmlns:dc="http://purl.org/dc/elements/1.1/"
   xmlns:cc="http://creativecommons.org/ns#"
   xmlns:rdf="http://www.w3.org/1999/02/22-rdf-syntax-ns#"
   xmlns:svg="http://www.w3.org/2000/svg"
   xmlns="http://www.w3.org/2000/svg"
   viewBox="0 0 2193.5732 1098.2267"
   height="1098.2267"
   width="2193.5732"
   xml:space="preserve"
   id="svg2"
   version="1.1"><metadata
     id="metadata8"><rdf:RDF><cc:Work
         rdf:about=""><dc:format>image/svg+xml</dc:format><dc:type
           rdf:resource="http://purl.org/dc/dcmitype/StillImage" /></cc:Work></rdf:RDF></metadata><defs
     id="defs6" /><g
     transform="matrix(1.3333333,0,0,-1.3333333,0,1098.2267)"
     id="g10"><g
       transform="scale(0.1)"
       id="g12"><path
         id="path14"
         style="fill:#244a91;fill-opacity:1;fill-rule:evenodd;stroke:none"
         d="m 14026.3,497.109 h 217.5 v 605.251 h -217.5 V 497.109 Z m -2908.6,0 h 217.2 v 605.251 h -217.2 V 497.109 Z m 1228.9,-0.039 c 0,0 -157.3,127.02 -388.3,246.809 -64.7,33.582 -119.3,55.363 -169.7,76.141 l 0.2,-322.95 h -210.7 v 604.57 c 0,0 178.2,-34.53 380.3,-139.55 231.2,-119.93 388.2,-235.828 388.2,-235.828 v 375.998 h 211 V 497.07 h -211 z m -1374.2,468.102 -539,-484.281 -539.81,484.73 161.51,146.899 c 0,0 329.1,-317.579 378.3,-362.629 48.1,45.05 378.1,362.629 378.1,362.629 l 160.9,-147.348 z m -859,1170.398 c -17.8,-37.95 -46,-56.89 -90,-56.89 -41.65,0 -76,21.51 -90.5,56.89 l -536.43,1231.01 h -496.83 l 607.28,-1351.57 c 80.16,-181.83 240.89,-322.59 516.48,-321.01 h 4.6 c 291,0 455.4,183.15 511.6,321.01 l 605.2,1351.57 h -497 l -534.4,-1231.01 z m -6362.23,1233.72 2.26,-811.26 c 0,-78.44 -3.66,-158.47 -10.71,-232.26 -8.86,-75.51 -52.74,-206.51 -245.59,-233.35 -97.93,-12.97 -183.11,-15.18 -325.17,-15.41 -146.68,0.23 -181.25,2.89 -278.36,15.41 -155.72,22.23 -181.57,127.48 -194.58,233.35 -4.16,40.26 -11.03,123.23 -11.03,232.26 l -1.31,811.26 h -462.76 l -2.13,-833.26 c 0,-207.55 21.24,-346.05 30.46,-395.62 38.9,-214.64 219.57,-375.55 460.91,-409.99 174.38,-24.99 280.44,-35.38 486.81,-35.38 h 10.98 c 199.37,0 334.57,9.45 517.58,35.38 241.94,34.62 422.91,195.48 460.83,409.81 25.84,147.22 30.32,311.12 30.45,395.8 l -2.12,833.26 H 3751.17 Z M 11387.2,1707.92 h 429.4 V 3366.3 h -429.4 V 1707.92 Z m -4901.67,17.35 c -18.12,106.55 -79.13,367.92 -252.06,496.98 l -17.89,13.23 19.15,11.75 c 83.29,49.08 223.01,160.19 224.95,349.57 v 68.69 c 0,87.98 -1.27,190.82 -10.12,287.49 -27.7,294.75 -305.02,422.68 -927.71,427.88 -17.98,0.36 -36.28,0.36 -54.18,0.36 -402.58,0 -799.51,-47.95 -876.5,-57.75 l -9.81,-0.95 V 1707.69 h 429.1 v 426.4 l 16,-1.23 c 21.15,-1.45 48.39,-3.48 61,-5.01 124.27,-8.82 311.35,-15.55 434.62,-15.55 l 108.95,0.36 h 115 c 2.17,0.09 4.29,0.09 6.64,0.09 101.27,0 202.67,-200.59 250.48,-398.42 l 1.22,-6.64 h 483.55 l -0.72,10.3 c -0.59,1.72 -1.13,3.98 -1.67,7.28 z m -525.58,811.52 c -57.21,-34.52 -174.88,-47.98 -419.52,-47.98 l -18.35,0.13 c -218.3,0 -400.64,13.2 -498.38,25.31 l -12.88,1.62 v 461.15 l 13.29,1.49 c 73.02,7.95 244.47,25.98 497.97,25.98 h 10.03 c 221.33,0 343.83,-14.91 410.21,-49.7 71.99,-38.91 85.72,-97.16 87.13,-198.42 -0.32,-122.33 -7.55,-183.97 -69.5,-219.58 z m 7685.75,530.28 c -89.7,209.99 -252.3,312.07 -497.6,312.07 h -9.6 c -245.4,0 -408.2,-102.08 -498,-312.38 l -596.1,-1358.84 h 464.3 l 130.8,309.99 4.3,9.53 10.4,-0.54 c 184.2,-12.75 327,-18.44 463.7,-18.44 147.8,0 301.3,6.69 513.8,22.01 l 10.5,0.77 4.3,-9.76 133,-313.56 h 464.3 l -598.1,1359.15 z m -175.4,-692.18 c -134.6,-7.5 -246.7,-11.25 -352.4,-11.25 -93.3,0 -192.1,2.39 -302.3,8.45 l -21.5,1.22 8.7,19.83 236.4,544.2 c 14.2,31.59 49.2,65.07 104,65.07 45.3,0 86.2,-25.71 103.9,-65.52 l 236.1,-541.08 8.5,-19.52 -21.4,-1.4 z m -5194.93,972.35 c -194.4,22.36 -329.28,30.86 -497.16,30.86 -168.46,0 -303.16,-8.5 -498.33,-30.86 -278.8,-30.91 -456.62,-192.28 -500.86,-454.09 -13.6,-79.81 -26.98,-271.49 -26.98,-356.49 0,-82.06 15.64,-313.19 30.33,-395.57 38.72,-214.6 219.61,-375.47 460.96,-409.81 182.15,-26.08 326.84,-35.61 534.88,-35.61 207.5,0 352.65,9.53 534.26,35.61 241.12,34.34 422.01,195.21 460.87,409.81 14.5,81.16 30.09,312.42 30.18,395.57 0,85 -13.06,276.68 -26.75,356.49 -44.28,261.81 -222.32,423.49 -501.4,454.09 z m 52.82,-1042.71 -3.88,-29.69 c -14.38,-95.16 -42.35,-159.83 -210.76,-185.9 -98.14,-12.97 -197.33,-15.63 -335.34,-15.63 -138.41,0 -237.64,2.66 -336.24,15.63 -176.23,27.34 -198.64,97.11 -212.83,200.9 -4.03,38.5 -10.8,139.86 -10.8,246.82 0,105.87 6.77,211.34 10.8,253.28 14.59,116.36 72.43,174.11 194.03,192.13 90.29,12.25 200.63,17.99 345.96,17.99 h 12.02 c 149.03,0 260.78,-5.56 351.92,-17.99 122.87,-18.57 178.85,-74.15 193.23,-192.22 4.38,-41.03 11.2,-146 11.2,-253.19 0,-94.21 -5.15,-184.45 -9.31,-232.13 z M 455.359,2195.35 v 175.38 H 1845.88 v 332.99 H 453.684 v 14.87 l 0.093,165.34 c 0,80.12 54.403,123.68 152.961,123.68 H 1845.88 V 3366.3 H 597.789 C 377.227,3366.3 215.32,3316.33 116.945,3217.73 2.53125,3103.27 2.89063,2950.08 2.89063,2884.65 v -6.01 c 0,-243.6 -1.39844,-389.24 -2.257817,-485.27 C -0.5,2247.23 -0.855469,2216.73 6.14453,2132.86 30.2734,1835.75 216.496,1708.73 628.699,1708.73 H 1848.5 v 357.89 H 610.488 c -128.293,0 -155.129,70.04 -155.129,128.73 z M 7076.94,5303.32 c 0,0 -114.23,-35.47 -239.22,-35.87 -68.41,0 -157.03,15.77 -222.05,37.1 l -1360.38,461.91 v -318.35 l 1360.38,-464.17 c 0,0 102.12,-36.01 219.34,-36.01 117.31,0 230.91,32.62 230.91,32.62 l 1837.1,577.95 -487.25,169.05 -1338.83,-424.23 z m 0,897.57 c 0,0 -114.23,-35.52 -239.22,-35.74 -68.41,0 -157.03,15.4 -222.05,36.96 l -1360.38,461.87 v -318.49 l 1360.38,-464.08 c 0,0 102.12,-36.33 219.34,-36.33 117.31,0 230.91,32.94 230.91,32.94 l 1837.1,577.95 -487.25,169.19 -1338.83,-424.27 z m -242.38,543.33 c 126.25,0 242.34,36.12 242.34,36.12 l 1534.53,486.62 c 333.3,106.15 415.54,267.47 73.75,387.22 L 7087.93,8197.6 c 0,0 -113.52,39.09 -250.16,39.09 -136.56,0 -250.21,-39.09 -250.21,-39.09 L 4995.6,7654.18 c -339.95,-117.54 -248.76,-278.9 34.97,-374.57 l 1567.88,-499.27 c 0,0 110.08,-36.12 236.11,-36.12 z M 12797.6,532.992 V 1064.4 c 0,0 190.6,48.12 496.6,48.12 303.9,0 496.1,-48.12 496.1,-48.12 V 882.699 c 0,0 -215.3,41.621 -496.1,42.922 -134.9,0 -228.7,-16.359 -284.6,-22 0.3,-43.469 0,-166.242 0,-210.172 49.6,-4.699 142.5,-21.136 282.7,-21.136 288.3,0 498,41.109 498,41.109 v -180.52 c 0,0 -195.2,-47.773 -496.1,-47.773 -302.9,0 -496.6,47.863 -496.6,47.863 v 0" /><g
         transform="scale(1.00931)"
         id="g16"><path
           id="path18"
           style="fill:#ec1a2e;fill-opacity:1;fill-rule:evenodd;stroke:none"
           d="m 16300,829.339 c 0,79.289 -32.1,150.16 -83.4,201.911 -50.7,51.49 -122.5,82.87 -201.9,82.87 -162.8,0 -292,-131.978 -292,-290.114 0,-28.601 12.4,-83.543 12.4,-106.686 0,-124.331 -100.8,-224.797 -225,-224.797 h -240.7 c -46.4,0 -83.8,-37.422 -83.8,-83.67 V 83.6313 C 15185.6,37.75 15223,0 15269.4,0 h 324.8 c 46.1,0 83.7,37.75 83.7,83.6313 V 324.904 c 0,123.928 100.9,224.789 225,224.789 23.1,0 77.9,-12.396 106.7,-12.396 158,0 290.4,129.435 290.4,292.042 z M 8821.51,7397.48 c -11.6,-71.41 -115.61,-142.6 -289.63,-197.49 L 7011.83,6717.73 c 0,0 -113.5,-34.89 -237.29,-35.74 v -574 c 123.79,0.44 237.29,35.68 237.29,35.68 l 1520.05,482.05 c 313.49,96.35 290.07,140.98 290.07,420.8 l -0.44,350.96 z m -0.77,-1239.88 0.13,238.8 -1820.42,-572.62 c 0,0 -110.85,-31.73 -225.86,-32.5 v -572.57 c 123.96,0.76 237.24,35.9 237.24,35.9 l 1520.14,482.14 c 313.4,96.39 288.77,140.94 288.77,420.85 z m 0,-890.85 0.13,240.41 -1608.61,-506.3 -200.43,-62.91 c 0,0 -1.79,-0.35 -4.89,-1.52 l -6.49,-1.8 c 0,0 -110.85,-32.09 -225.86,-32.32 v -574.05 c 123.96,0.14 237.24,35.77 237.24,35.77 l 1520.14,481.96 c 313.4,96.16 288.77,141.13 288.77,420.76 z M 14598,1092.01 h 299.8 c 109.7,0 178.3,55.78 203.7,82.42 25.4,26.63 84.1,92.94 84.1,170.17 v 249.29 c 0,46.11 37.4,83.77 83.6,83.77 h 325 c 46.1,0 83.7,-37.66 83.7,-83.77 v -325.21 c 0,-46.04 -37.6,-83.63 -83.7,-83.63 h -249 c -77.7,0 -143.8,-58.71 -170.4,-84.22 -26.9,-25.08 -82.2,-93.89 -82.6,-203.178 V 597.695 H 14598 v 494.315 0" /></g></g></g></svg>